<svg width="20" height="20" viewBox="0 0 20 20" fill="none" xmlns="http://www.w3.org/2000/svg">
<path fill-rule="evenodd" clip-rule="evenodd" d="M-0.000244141 9.9C-0.000244141 5.77529 -0.000244141 3.71294 1.05016 2.26718C1.3894 1.80026 1.80002 1.38964 2.26694 1.05041C3.7127 0 5.77505 0 9.89976 0H10.0998C14.2245 0 16.2868 0 17.7326 1.05041C18.1995 1.38964 18.6101 1.80026 18.9494 2.26718C19.9998 3.71294 19.9998 5.77529 19.9998 9.9V10.1C19.9998 14.2247 19.9998 16.2871 18.9494 17.7328C18.6101 18.1997 18.1995 18.6104 17.7326 18.9496C16.2868 20 14.2245 20 10.0998 20H9.89976C5.77505 20 3.7127 20 2.26694 18.9496C1.80002 18.6104 1.3894 18.1997 1.05016 17.7328C-0.000244141 16.2871 -0.000244141 14.2247 -0.000244141 10.1V9.9ZM9.99995 4.70591C7.07627 4.70591 4.70583 7.07636 4.70583 10C4.70583 12.9237 7.07627 15.2942 9.99995 15.2942C12.9236 15.2942 15.2941 12.9237 15.2941 10C15.2941 7.07636 12.9236 4.70591 9.99995 4.70591ZM9.99995 13.3089C8.17613 13.3089 6.69113 11.8239 6.69113 10C6.69113 8.17489 8.17613 6.69121 9.99995 6.69121C11.8238 6.69121 13.3088 8.17489 13.3088 10C13.3088 11.8239 11.8238 13.3089 9.99995 13.3089ZM16.3963 4.30883C16.3963 4.69844 16.0805 5.01427 15.6909 5.01427C15.3013 5.01427 14.9854 4.69844 14.9854 4.30883C14.9854 3.91923 15.3013 3.60339 15.6909 3.60339C16.0805 3.60339 16.3963 3.91923 16.3963 4.30883Z" fill="#069315"/>
</svg>
