<svg width="54" height="19" viewBox="0 0 54 19" fill="none" xmlns="http://www.w3.org/2000/svg">
<path d="M0.68 18H3.188V10.62H9.476V8.1H3.188V3.228H10.916V0.719999H0.68V18ZM18.3549 18.36C19.6429 18.36 20.7629 18.072 21.7149 17.496C22.6669 16.912 23.4029 16.108 23.9229 15.084C24.4509 14.052 24.7149 12.86 24.7149 11.508C24.7149 10.172 24.4549 8.992 23.9349 7.968C23.4149 6.936 22.6789 6.132 21.7269 5.556C20.7749 4.972 19.6509 4.68 18.3549 4.68C17.0829 4.68 15.9709 4.968 15.0189 5.544C14.0669 6.12 13.3269 6.92 12.7989 7.944C12.2709 8.968 12.0069 10.156 12.0069 11.508C12.0069 12.844 12.2669 14.028 12.7869 15.06C13.3069 16.092 14.0389 16.9 14.9829 17.484C15.9349 18.068 17.0589 18.36 18.3549 18.36ZM18.3549 15.996C17.1469 15.996 16.2309 15.592 15.6069 14.784C14.9829 13.968 14.6709 12.876 14.6709 11.508C14.6709 10.188 14.9709 9.116 15.5709 8.292C16.1709 7.46 17.0989 7.044 18.3549 7.044C19.5789 7.044 20.4989 7.448 21.1149 8.256C21.7389 9.064 22.0509 10.148 22.0509 11.508C22.0509 12.836 21.7429 13.916 21.1269 14.748C20.5189 15.58 19.5949 15.996 18.3549 15.996ZM32.9799 18.36C34.2679 18.36 35.3879 18.072 36.3399 17.496C37.2919 16.912 38.0279 16.108 38.5479 15.084C39.0759 14.052 39.3399 12.86 39.3399 11.508C39.3399 10.172 39.0799 8.992 38.5599 7.968C38.0399 6.936 37.3039 6.132 36.3519 5.556C35.3999 4.972 34.2759 4.68 32.9799 4.68C31.7079 4.68 30.5959 4.968 29.6439 5.544C28.6919 6.12 27.9519 6.92 27.4239 7.944C26.8959 8.968 26.6319 10.156 26.6319 11.508C26.6319 12.844 26.8919 14.028 27.4119 15.06C27.9319 16.092 28.6639 16.9 29.6079 17.484C30.5599 18.068 31.6839 18.36 32.9799 18.36ZM32.9799 15.996C31.7719 15.996 30.8559 15.592 30.2319 14.784C29.6079 13.968 29.2959 12.876 29.2959 11.508C29.2959 10.188 29.5959 9.116 30.1959 8.292C30.7959 7.46 31.7239 7.044 32.9799 7.044C34.2039 7.044 35.1239 7.448 35.7399 8.256C36.3639 9.064 36.6759 10.148 36.6759 11.508C36.6759 12.836 36.3679 13.916 35.7519 14.748C35.1439 15.58 34.2199 15.996 32.9799 15.996ZM47.1249 18.36C47.9409 18.36 48.6689 18.224 49.3089 17.952C49.9569 17.68 50.5169 17.3 50.9889 16.812V18H53.2209V0.719999H50.7009V5.928C50.2529 5.528 49.7329 5.22 49.1409 5.004C48.5489 4.788 47.8929 4.68 47.1729 4.68C45.9569 4.68 44.9049 4.98 44.0169 5.58C43.1369 6.172 42.4569 6.984 41.9769 8.016C41.4969 9.04 41.2569 10.204 41.2569 11.508C41.2569 12.804 41.4929 13.968 41.9649 15C42.4449 16.032 43.1249 16.852 44.0049 17.46C44.8849 18.06 45.9249 18.36 47.1249 18.36ZM47.4729 16.092C46.6729 16.092 46.0089 15.888 45.4809 15.48C44.9529 15.072 44.5609 14.524 44.3049 13.836C44.0489 13.14 43.9209 12.364 43.9209 11.508C43.9209 10.66 44.0489 9.892 44.3049 9.204C44.5689 8.516 44.9689 7.968 45.5049 7.56C46.0409 7.152 46.7249 6.948 47.5569 6.948C48.7409 6.948 49.6089 7.372 50.1609 8.22C50.7129 9.068 50.9889 10.164 50.9889 11.508C50.9889 12.852 50.7129 13.952 50.1609 14.808C49.6089 15.664 48.7129 16.092 47.4729 16.092Z" fill="#1A1A1A"/>
</svg>
