<svg width="65" height="72" viewBox="0 0 65 72" fill="none" xmlns="http://www.w3.org/2000/svg">
<path d="M64.0707 63.5137L53.4958 45.1974C53.8756 44.7549 54.3918 44.4275 54.9942 44.2855C56.66 43.8931 58.0413 42.7836 58.7838 41.2416C59.5264 39.6997 59.5325 37.9281 58.8008 36.3811C58.2407 35.1971 58.5608 33.7947 59.5792 32.9709C60.9097 31.8945 61.6729 30.2956 61.6729 28.5842C61.6729 26.8729 60.9097 25.2739 59.5792 24.1976C58.5608 23.3738 58.2407 21.9714 58.8008 20.7874C59.5326 19.2403 59.5264 17.4686 58.7838 15.9267C58.0413 14.3848 56.66 13.2753 54.9941 12.8828C53.7192 12.5825 52.8223 11.4579 52.8132 10.148C52.8014 8.43669 52.027 6.84318 50.689 5.77615C49.351 4.70912 47.6249 4.30877 45.954 4.67804C44.6748 4.96041 43.379 4.33647 42.8024 3.16032C42.0491 1.62362 40.6602 0.523827 38.9916 0.143026C37.3229 -0.237915 35.5944 0.150479 34.2489 1.20809C33.2193 2.01764 31.7809 2.01764 30.7511 1.20809C29.4056 0.150479 27.6771 -0.237634 26.0085 0.143026C24.3399 0.523827 22.951 1.62362 22.1977 3.16032C21.6212 4.33647 20.3248 4.96083 19.0463 4.67804C17.3751 4.30905 15.6492 4.70912 14.3113 5.77615C12.9733 6.84318 12.199 8.43669 12.1871 10.148C12.1779 11.4578 11.2811 12.5825 10.006 12.8828C8.34025 13.2753 6.95894 14.3848 6.21646 15.9267C5.47384 17.4686 5.4678 19.2403 6.19945 20.7873C6.75954 21.9713 6.43949 23.3737 5.42111 24.1974C4.09056 25.2739 3.32741 26.8728 3.32741 28.5841C3.32741 30.2955 4.09056 31.8945 5.42111 32.9708C6.43949 33.7945 6.75954 35.1969 6.19945 36.381C5.46766 37.9281 5.47384 39.6997 6.21646 41.2416C6.95894 42.7836 8.34025 43.8931 10.0062 44.2855C10.6086 44.4274 11.1248 44.7549 11.5046 45.1974L0.92983 63.5137C0.645073 64.007 0.685994 64.6233 1.03333 65.0746C1.3808 65.5258 1.96606 65.7229 2.51575 65.5739L9.88103 63.5757L11.8333 70.9534C11.979 71.504 12.4424 71.9123 13.007 71.9875C13.0693 71.9958 13.1315 71.9999 13.1932 71.9999C13.6906 71.9999 14.1572 71.7355 14.4106 71.2968L23.4339 55.6681C24.1485 56.3295 25.0298 56.802 26.0088 57.0255C27.6771 57.406 29.4059 57.018 30.7515 55.9604C31.7811 55.1509 33.2196 55.1509 34.2493 55.9604C35.2562 56.7518 36.4773 57.1685 37.7276 57.1685C38.148 57.1685 38.572 57.1214 38.9919 57.0255C39.9709 56.802 40.8523 56.3295 41.5668 55.6681L50.5901 71.2968C50.8435 71.7356 51.3101 71.9999 51.8075 71.9999C51.8691 71.9999 51.9314 71.9958 51.9937 71.9875C52.5583 71.9123 53.0217 71.5039 53.1674 70.9534L55.1197 63.5757L62.485 65.5739C63.0346 65.7233 63.62 65.5258 63.9674 65.0746C64.3147 64.6233 64.3556 64.007 64.0707 63.5137ZM13.6799 66.9375L12.238 61.4885C12.1421 61.1265 11.906 60.8176 11.5817 60.6304C11.2573 60.4431 10.8718 60.3931 10.5105 60.4911L5.0704 61.9669L12.559 48.9963C12.9134 49.925 13.5105 50.7534 14.3116 51.3923C15.6496 52.4594 17.3757 52.8597 19.0465 52.4905C19.9902 52.2821 20.9424 52.5684 21.6088 53.2047L13.6799 66.9375ZM38.366 54.2836C37.5287 54.4745 36.6621 54.2799 35.9874 53.7496C34.9607 52.9424 33.7307 52.539 32.5003 52.539C31.2701 52.539 30.0396 52.9425 29.0132 53.7496C28.3385 54.28 27.4718 54.4748 26.6346 54.2836C25.7977 54.0927 25.1011 53.541 24.7233 52.7703C23.5738 50.4253 20.9896 49.1809 18.4398 49.7443C17.6015 49.9295 16.736 49.7287 16.065 49.1935C15.3939 48.6583 15.0055 47.8591 14.9995 47.0008C14.9813 44.3893 13.1932 42.1471 10.6512 41.5482C9.81565 41.3513 9.12295 40.7949 8.75044 40.0215C8.37808 39.2481 8.37499 38.3596 8.74201 37.5835C9.85853 35.2228 9.2204 32.4268 7.18998 30.7844C6.52259 30.2446 6.13996 29.4426 6.13996 28.5842C6.13996 27.7259 6.52273 26.9239 7.19012 26.3841C9.2204 24.7416 9.85868 21.9457 8.74201 19.5848C8.37499 18.8089 8.37808 17.9203 8.75058 17.147C9.12295 16.3736 9.81579 15.8172 10.6512 15.6203C13.1932 15.0214 14.9813 12.7792 14.9995 10.1677C15.0055 9.30938 15.3938 8.51009 16.065 7.97503C16.736 7.43983 17.6014 7.23888 18.4399 7.42422C20.9895 7.98712 23.5738 6.7432 24.7233 4.39821C25.1011 3.62746 25.7977 3.07581 26.6346 2.88485C27.4717 2.69402 28.3385 2.8885 29.0132 3.41892C31.0664 5.03311 33.9342 5.03311 35.9874 3.41892C36.6622 2.8885 37.5289 2.69402 38.366 2.88485C39.2028 3.07581 39.8995 3.62746 40.2773 4.39821C41.4267 6.7432 44.0108 7.98712 46.5608 7.42422C47.3988 7.23874 48.2646 7.43983 48.9356 7.97503C49.6066 8.51023 49.995 9.30938 50.0011 10.1677C50.0192 12.7792 51.8074 15.0214 54.3493 15.6203C55.1849 15.8172 55.8776 16.3736 56.2501 17.147C56.6225 17.9204 56.6256 18.8089 56.2586 19.5849C55.142 21.9457 55.7802 24.7416 57.8106 26.3841C58.478 26.9239 58.8606 27.7259 58.8606 28.5842C58.8606 29.4426 58.4778 30.2446 57.8104 30.7844C55.7802 32.4268 55.1419 35.2228 56.2586 37.5837C56.6256 38.3596 56.6225 39.2482 56.25 40.0215C55.8776 40.7949 55.1848 41.3513 54.3493 41.5482C51.8074 42.1471 50.0192 44.3893 50.0011 47.0008C49.995 47.8591 49.6068 48.6584 48.9356 49.1935C48.2646 49.7287 47.399 49.9293 46.5607 49.7443C44.0108 49.1808 41.4267 50.4253 40.2773 52.7703C39.8995 53.541 39.2028 54.0925 38.366 54.2836ZM54.4901 60.4911C54.1286 60.3931 53.7431 60.4433 53.4189 60.6304C53.0946 60.8177 52.8583 61.1265 52.7626 61.4885L51.3207 66.9375L43.3919 53.2047C44.0585 52.5682 45.0106 52.2818 45.954 52.4905C47.6253 52.8596 49.351 52.4594 50.689 51.3923C51.4901 50.7535 52.0872 49.925 52.4415 48.9963L59.9302 61.9669L54.4901 60.4911Z" fill="white"/>
<path d="M39.191 39.2186C39.4811 39.2186 39.7712 39.129 40.0175 38.95C40.5092 38.5929 40.7157 37.9602 40.5297 37.3818L38.3131 30.4903L44.1585 26.1953C44.6483 25.8355 44.8515 25.2016 44.6622 24.624C44.4728 24.0465 43.9338 23.656 43.3261 23.656H36.0925L33.8368 16.7832C33.6473 16.2058 33.1084 15.8154 32.5008 15.8154C31.8932 15.8154 31.3542 16.2058 31.1648 16.7832L28.9091 23.656H21.6756C21.0678 23.656 20.5287 24.0465 20.3394 24.624C20.15 25.2016 20.3532 25.8355 20.8431 26.1953L26.6885 30.4903L24.4719 37.3818C24.2859 37.9604 24.4925 38.5929 24.9841 38.95C25.4758 39.3072 26.1412 39.3081 26.6338 38.9524L32.5011 34.7161L38.3683 38.9524C38.6136 39.1299 38.9021 39.2186 39.191 39.2186ZM33.3237 31.8417C33.0779 31.6642 32.7892 31.5755 32.5005 31.5755C32.2118 31.5755 31.9231 31.6642 31.6773 31.8417L28.4608 34.1642L29.6756 30.3872C29.8608 29.8114 29.657 29.1816 29.1695 28.8234L25.9641 26.4681H29.9273C30.5349 26.4681 31.0739 26.0778 31.2634 25.5004L32.5005 21.7308L33.7377 25.5004C33.9273 26.0778 34.4661 26.4681 35.0737 26.4681H39.037L35.8316 28.8234C35.344 29.1816 35.1403 29.8113 35.3255 30.3872L36.5403 34.1642L33.3237 31.8417Z" fill="white"/>
<path d="M52.1872 28.5843C52.1872 17.729 43.3557 8.89746 32.5004 8.89746C21.645 8.89746 12.8135 17.729 12.8135 28.5843C12.8135 36.8426 18.0273 44.2821 25.7874 47.0966C26.5174 47.3613 27.324 46.9843 27.5889 46.2542C27.8537 45.5241 27.4766 44.7176 26.7464 44.4527C20.095 42.0403 15.626 35.6633 15.626 28.5843C15.626 19.2798 23.1959 11.7099 32.5005 11.7099C41.8051 11.7099 49.375 19.2798 49.375 28.5843C49.375 35.6638 44.9056 42.0409 38.2537 44.4531C37.5236 44.7179 37.1463 45.5243 37.4111 46.2545C37.6185 46.8262 38.1581 47.1817 38.7331 47.1817C38.8923 47.1817 39.0541 47.1544 39.2125 47.097C46.973 44.2828 52.1872 36.8431 52.1872 28.5843Z" fill="white"/>
<path d="M32.5002 45.459C32.1304 45.459 31.7676 45.6095 31.506 45.871C31.2445 46.1326 31.094 46.4954 31.094 46.8652C31.094 47.2351 31.2445 47.5979 31.506 47.8595C31.7676 48.121 32.1304 48.2715 32.5002 48.2715C32.8701 48.2715 33.2329 48.121 33.4945 47.8595C33.756 47.5979 33.9065 47.2351 33.9065 46.8652C33.9065 46.4954 33.756 46.1326 33.4945 45.871C33.2329 45.6095 32.8701 45.459 32.5002 45.459Z" fill="white"/>
</svg>
