<svg width="61" height="68" viewBox="0 0 61 68" fill="none" xmlns="http://www.w3.org/2000/svg">
<path d="M48.5 58.75C48.5 57.86 48.2361 56.99 47.7416 56.2499C47.2472 55.5099 46.5444 54.9331 45.7221 54.5925C44.8998 54.2519 43.995 54.1628 43.1221 54.3365C42.2492 54.5101 41.4474 54.9387 40.818 55.568C40.1887 56.1974 39.7601 56.9992 39.5865 57.8721C39.4128 58.745 39.5019 59.6498 39.8425 60.4721C40.1831 61.2944 40.7599 61.9972 41.4999 62.4916C42.24 62.9861 43.11 63.25 44 63.25C45.1935 63.25 46.3381 62.7759 47.182 61.932C48.0259 61.0881 48.5 59.9435 48.5 58.75ZM41.75 58.75C41.75 58.305 41.882 57.87 42.1292 57.5C42.3764 57.13 42.7278 56.8416 43.139 56.6713C43.5501 56.501 44.0025 56.4564 44.439 56.5432C44.8754 56.6301 45.2763 56.8443 45.591 57.159C45.9057 57.4737 46.12 57.8746 46.2068 58.3111C46.2936 58.7475 46.249 59.1999 46.0787 59.611C45.9084 60.0222 45.6201 60.3736 45.25 60.6208C44.88 60.8681 44.445 61 44 61C43.4033 61 42.831 60.763 42.409 60.341C41.9871 59.919 41.75 59.3467 41.75 58.75Z" fill="#069315"/>
<path d="M57.6294 57.4205C57.3338 57.3802 57.0344 57.4588 56.7969 57.6392C56.5593 57.8196 56.4031 58.0869 56.3626 58.3824L55.3929 65.5003H38.375C38.0766 65.5003 37.7905 65.6188 37.5795 65.8298C37.3685 66.0407 37.25 66.3269 37.25 66.6253C37.25 66.9236 37.3685 67.2098 37.5795 67.4208C37.7905 67.6317 38.0766 67.7503 38.375 67.7503H56.375C56.6471 67.7503 56.91 67.6517 57.1149 67.4728C57.3199 67.2939 57.4531 67.0467 57.4899 66.7771L58.5935 58.6873C58.6134 58.5408 58.6043 58.3918 58.5667 58.2488C58.529 58.1058 58.4635 57.9717 58.374 57.854C58.2844 57.7364 58.1726 57.6375 58.0448 57.5632C57.9171 57.4888 57.7759 57.4403 57.6294 57.4205Z" fill="#069315"/>
<path d="M60.5971 41.1349C60.4915 41.0141 60.3613 40.9173 60.2152 40.8509C60.0691 40.7845 59.9105 40.7502 59.75 40.7502H54.4625L56.3503 30.8356C56.3744 30.7039 56.3744 30.569 56.3503 30.4373L56.8689 28.0231L58.5485 30.8232L57.1963 37.1738C57.1338 37.4655 57.1898 37.77 57.3518 38.0204C57.5138 38.2708 57.7686 38.4466 58.0603 38.5092C58.1383 38.5257 58.2179 38.5339 58.2976 38.5339C58.5546 38.5335 58.8037 38.4451 59.0035 38.2834C59.2033 38.1217 59.3417 37.8965 59.3956 37.6452L60.8491 30.8603C60.9098 30.5815 60.8615 30.2901 60.7141 30.0458L57.3391 24.4208C57.2233 24.2274 57.0521 24.0731 56.8476 23.9782C56.6431 23.8832 56.4148 23.8519 56.1923 23.8883C55.9698 23.9247 55.7633 24.0271 55.5997 24.1822C55.4361 24.3373 55.3229 24.5381 55.2748 24.7583L54.35 29.0502L50.0379 27.3256C49.8786 27.2619 49.7068 27.2354 49.5357 27.2483C49.3646 27.2612 49.1987 27.3131 49.0507 27.3999C48.9027 27.4868 48.7766 27.6063 48.6819 27.7494C48.5872 27.8925 48.5266 28.0554 48.5045 28.2256L47.5708 35.6933L46.8204 35.5054L46.25 28.2852C46.227 28.0401 46.1243 27.8093 45.9575 27.6282L46.1825 24.7313L47.2524 24.4107L50.2179 25.9924C50.3484 26.0647 50.492 26.1103 50.6403 26.1266C50.7886 26.1429 50.9386 26.1295 51.0817 26.0872C51.2248 26.045 51.358 25.9747 51.4737 25.8804C51.5893 25.7862 51.6851 25.6699 51.7553 25.5383C51.8256 25.4067 51.869 25.2624 51.883 25.1139C51.897 24.9653 51.8813 24.8155 51.8369 24.6731C51.7924 24.5307 51.7201 24.3985 51.6241 24.2843C51.5281 24.1702 51.4103 24.0762 51.2776 24.0079L47.9026 22.2079C47.6408 22.0681 47.3343 22.0373 47.0499 22.1224L44.7999 22.7974C44.5827 22.8625 44.3903 22.9915 44.2478 23.1678C44.1052 23.344 44.0193 23.5592 44.0011 23.7852L43.8616 25.5244L42.5431 24.2048C42.4292 24.0912 42.2922 24.0034 42.1414 23.9473C41.9907 23.8912 41.8296 23.868 41.6692 23.8794C41.5087 23.8909 41.3525 23.9366 41.2112 24.0134C41.0699 24.0903 40.9467 24.1966 40.85 24.3252L39.5 26.1252V25.0002C39.5 24.1051 39.1444 23.2466 38.5115 22.6137C37.8786 21.9808 37.0201 21.6252 36.125 21.6252H33.875V20.5002C33.875 19.6051 33.5194 18.7466 32.8865 18.1137C32.2536 17.4808 31.3951 17.1252 30.5 17.1252H24.875V11.8039L33.497 6.05519C33.6199 5.97321 33.7255 5.86782 33.8077 5.74503C33.8899 5.62224 33.9471 5.48446 33.976 5.33956C34.005 5.19466 34.0051 5.04548 33.9764 4.90054C33.9476 4.75559 33.8906 4.61773 33.8086 4.49482L31.3134 0.750819C31.2314 0.627887 31.126 0.52231 31.0032 0.440116C30.8804 0.357923 30.7426 0.300724 30.5977 0.271786C30.4528 0.242847 30.3037 0.242738 30.1587 0.271462C30.0138 0.300186 29.8759 0.357182 29.753 0.439194L19.628 7.18919C19.1652 7.49686 18.7858 7.91429 18.5235 8.40425C18.2613 8.89421 18.1243 9.44146 18.125 9.99719V17.1252H12.5C11.6049 17.1252 10.7465 17.4808 10.1135 18.1137C9.48058 18.7466 9.125 19.6051 9.125 20.5002V21.6252H6.875C5.9799 21.6252 5.12145 21.9808 4.48852 22.6137C3.85558 23.2466 3.5 24.1051 3.5 25.0002V27.2502C3.5 27.2727 4.175 33.1767 4.175 33.1767C4.20619 33.451 4.33714 33.7042 4.54292 33.8882C4.7487 34.0722 5.01495 34.1741 5.291 34.1746C5.33388 34.1748 5.37672 34.1721 5.41925 34.1667C5.71546 34.1328 5.9861 33.9827 6.17173 33.7494C6.35736 33.5161 6.44279 33.2187 6.40925 32.9224L5.885 28.3752H14.75C15.0484 28.3752 15.3345 28.2567 15.5455 28.0457C15.7565 27.8347 15.875 27.5486 15.875 27.2502C15.875 26.9518 15.7565 26.6657 15.5455 26.4547C15.3345 26.2437 15.0484 26.1252 14.75 26.1252H5.75V25.0002C5.75 24.7018 5.86853 24.4157 6.07951 24.2047C6.29048 23.9937 6.57663 23.8752 6.875 23.8752H36.125C36.4234 23.8752 36.7095 23.9937 36.9205 24.2047C37.1315 24.4157 37.25 24.7018 37.25 25.0002V26.1252H19.25C18.9516 26.1252 18.6655 26.2437 18.4545 26.4547C18.2435 26.6657 18.125 26.9518 18.125 27.2502C18.125 27.5486 18.2435 27.8347 18.4545 28.0457C18.6655 28.2567 18.9516 28.3752 19.25 28.3752H37.8125L37.475 28.8252C37.3083 29.0451 37.2282 29.3185 37.25 29.5936L37.5875 33.6492L37.1803 32.4994C37.1238 32.3399 37.0321 32.1951 36.9119 32.0759C36.7917 31.9566 36.6462 31.8661 36.4861 31.8109L33.1528 30.6657C32.8706 30.569 32.5617 30.5883 32.2938 30.7193C32.0258 30.8503 31.8209 31.0823 31.724 31.3643L31.1154 33.1339L30.419 31.3429C30.3372 31.1323 30.1939 30.9512 30.0076 30.8231C29.8214 30.6951 29.601 30.6261 29.375 30.6252H24.875C24.6937 30.6251 24.515 30.6688 24.3542 30.7526C24.1934 30.8364 24.0552 30.9578 23.9515 31.1065C23.8477 31.2552 23.7815 31.4268 23.7583 31.6067C23.7352 31.7865 23.7559 31.9693 23.8186 32.1394L24.5195 34.0396C24.263 34.0227 24.0099 34.0002 23.75 34.0002H12.5C10.0729 33.9978 7.69919 34.7124 5.67688 36.0544C5.55374 36.1361 5.4479 36.2413 5.3654 36.3639C5.28289 36.4865 5.22535 36.6241 5.19605 36.769C5.13687 37.0615 5.19632 37.3656 5.36131 37.6143C5.52631 37.8629 5.78334 38.0359 6.07586 38.0951C6.36839 38.1543 6.67244 38.0948 6.92113 37.9298C8.57479 36.8328 10.5156 36.2485 12.5 36.2502H23.75C26.2396 36.2532 28.6411 37.1722 30.4967 38.832C32.3524 40.4918 33.5324 42.7763 33.812 45.2502H2.438C2.61504 43.658 3.16966 42.131 4.05575 40.7963C4.20446 40.5476 4.25147 40.2511 4.18698 39.9686C4.12248 39.6861 3.95146 39.4394 3.70955 39.2798C3.46763 39.1203 3.17349 39.0602 2.88841 39.1122C2.60333 39.1642 2.3493 39.3242 2.17925 39.5588C0.838934 41.5794 0.124371 43.9505 0.125 46.3752C0.125 46.6736 0.243527 46.9597 0.454506 47.1707C0.665484 47.3817 0.951632 47.5002 1.25 47.5002H1.39175C1.58362 48.296 1.97949 49.028 2.54038 49.6242C2.43671 50.0333 2.38121 50.4532 2.375 50.8752C2.37631 52.3318 2.94534 53.7306 3.96125 54.7744C3.30546 55.1739 2.80914 55.7891 2.55747 56.5146C2.3058 57.24 2.31448 58.0304 2.582 58.7502H1.25C0.951632 58.7502 0.665484 58.8687 0.454506 59.0797C0.243527 59.2907 0.125 59.5768 0.125 59.8752V62.1252C0.126787 63.6165 0.719993 65.0462 1.7745 66.1007C2.829 67.1552 4.25871 67.7484 5.75 67.7502H9.125C9.42337 67.7502 9.70952 67.6317 9.9205 67.4207C10.1315 67.2097 10.25 66.9236 10.25 66.6252C10.25 66.3268 10.1315 66.0407 9.9205 65.8297C9.70952 65.6187 9.42337 65.5002 9.125 65.5002H5.75C4.8549 65.5002 3.99645 65.1446 3.36352 64.5117C2.73058 63.8787 2.375 63.0203 2.375 62.1252V61.0002H20.0589L20.6214 61.7022C20.7268 61.834 20.8605 61.9404 21.0126 62.0135C21.1647 62.0866 21.3312 62.1246 21.5 62.1246C21.6688 62.1246 21.8354 62.0866 21.9874 62.0135C22.1395 61.9404 22.2732 61.834 22.3786 61.7022L26.5411 56.5002H30.5C30.7984 56.5002 31.0845 56.6187 31.2955 56.8297C31.5065 57.0407 31.625 57.3268 31.625 57.6252C31.625 57.9236 31.5065 58.2097 31.2955 58.4207C31.0845 58.6317 30.7984 58.7502 30.5 58.7502H28.025C27.7266 58.7502 27.4405 58.8687 27.2295 59.0797C27.0185 59.2907 26.9 59.5768 26.9 59.8752C26.9 60.1736 27.0185 60.4597 27.2295 60.6707C27.4405 60.8817 27.7266 61.0002 28.025 61.0002H33.875V62.1252C33.875 63.0203 33.5194 63.8787 32.8865 64.5117C32.2536 65.1446 31.3951 65.5002 30.5 65.5002H13.625C13.3266 65.5002 13.0405 65.6187 12.8295 65.8297C12.6185 66.0407 12.5 66.3268 12.5 66.6252C12.5 66.9236 12.6185 67.2097 12.8295 67.4207C13.0405 67.6317 13.3266 67.7502 13.625 67.7502H30.5C31.9913 67.7484 33.421 67.1552 34.4755 66.1007C35.53 65.0462 36.1232 63.6165 36.125 62.1252V59.8752C36.125 59.5768 36.0065 59.2907 35.7955 59.0797C35.5845 58.8687 35.2984 58.7502 35 58.7502H33.668C33.9355 58.0304 33.9442 57.24 33.6925 56.5146C33.4409 55.7891 32.9445 55.1739 32.2888 54.7744C33.3047 53.7306 33.8737 52.3318 33.875 50.8752C33.8715 50.4764 33.8243 50.0791 33.7344 49.6906C34.3977 49.1383 34.8284 48.3561 34.9404 47.5002H35C35.0702 47.4932 35.1395 47.4792 35.207 47.4586C37.5719 49.7137 40.7329 50.942 44 50.8752C49.7274 50.8752 54.4681 47.4338 55.1623 43.0002H58.4608L56.9713 53.9217C56.9515 54.0681 56.9607 54.217 56.9984 54.3598C57.0362 54.5027 57.1017 54.6367 57.1912 54.7542C57.2807 54.8717 57.3925 54.9705 57.5202 55.0448C57.6479 55.1191 57.789 55.1675 57.9354 55.1873C57.9856 55.1949 58.0364 55.1987 58.0873 55.1986C58.3593 55.1986 58.6222 55.1 58.8272 54.9211C59.0322 54.7422 59.1654 54.495 59.2021 54.2254L60.8649 42.0271C60.8865 41.8679 60.8739 41.7059 60.8277 41.552C60.7815 41.3981 60.7029 41.2559 60.5971 41.1349ZM20.375 9.99719C20.375 9.81203 20.4207 9.62972 20.508 9.46644C20.5953 9.30316 20.7216 9.16396 20.8756 9.06119L30.0646 2.93557L31.3134 4.80757L23.1256 10.2627C22.9716 10.3655 22.8453 10.5047 22.758 10.6679C22.6707 10.8312 22.625 11.0135 22.625 11.1987V17.1252H20.375V9.99719ZM11.375 21.6252V20.5002C11.375 20.2018 11.4935 19.9157 11.7045 19.7047C11.9155 19.4937 12.2016 19.3752 12.5 19.3752H30.5C30.7984 19.3752 31.0845 19.4937 31.2955 19.7047C31.5065 19.9157 31.625 20.2018 31.625 20.5002V21.6252H11.375ZM46.1735 37.6722L48.4471 38.2347L47.8756 47.9524C47.1291 48.2216 46.356 48.4102 45.5694 48.5149L46.1735 37.6722ZM41.8715 26.7136L44.036 28.8781L44.5501 35.3029C44.5183 35.3152 44.4871 35.3291 44.4568 35.3446C44.3245 35.4434 44.2156 35.5701 44.1379 35.7157C44.0601 35.8614 44.0153 36.0223 44.0068 36.1872L43.3171 48.5881C42.5571 48.5441 41.8033 48.4243 41.0671 48.2303L39.5315 29.8377L41.8715 26.7136ZM26.4894 32.8752H28.6055L29.618 35.4852C28.81 35.0519 27.9561 34.7104 27.0721 34.4671L26.4894 32.8752ZM31.5901 50.5264C31.6085 50.6419 31.6201 50.7584 31.625 50.8752C31.625 51.7703 31.2694 52.6287 30.6365 53.2617C30.0036 53.8946 29.1451 54.2502 28.25 54.2502H8C7.13108 54.2472 6.2968 53.9091 5.67086 53.3064C5.04491 52.7038 4.67554 51.8829 4.63963 51.0147L4.74313 51.0676C5.4054 51.3967 6.1349 51.568 6.87444 51.568C7.61398 51.568 8.34348 51.3967 9.00575 51.0676L10.8159 50.1676C10.9894 50.0805 11.1809 50.0351 11.375 50.0351C11.5691 50.0351 11.7606 50.0805 11.9341 50.1676L14.309 51.3544C14.7956 51.5964 15.3316 51.7224 15.875 51.7224C16.4184 51.7224 16.9544 51.5964 17.441 51.3544L19.8125 50.1631C19.986 50.076 20.1775 50.0306 20.3716 50.0306C20.5658 50.0306 20.7572 50.076 20.9308 50.1631L23.3056 51.3499C23.7922 51.5919 24.3282 51.7179 24.8716 51.7179C25.415 51.7179 25.9511 51.5919 26.4376 51.3499L28.8125 50.1631C28.986 50.076 29.1775 50.0306 29.3716 50.0306C29.5658 50.0306 29.7572 50.076 29.9308 50.1631C30.4456 50.4187 31.0155 50.5435 31.5901 50.5264ZM5.75 58.7502C5.45163 58.7502 5.16548 58.6317 4.95451 58.4207C4.74353 58.2097 4.625 57.9236 4.625 57.6252C4.625 57.3268 4.74353 57.0407 4.95451 56.8297C5.16548 56.6187 5.45163 56.5002 5.75 56.5002H16.4589L18.2589 58.7502H5.75ZM21.5 59.2002L19.3411 56.5002H23.6589L21.5 59.2002ZM32.1571 48.0964C32.1156 48.1188 32.0728 48.1387 32.0289 48.1561C32.0203 48.1554 32.0116 48.1554 32.003 48.1561C31.9884 48.1617 31.9805 48.1741 31.9659 48.1797C31.8031 48.2495 31.6269 48.2828 31.4498 48.2771C31.2727 48.2715 31.0991 48.2271 30.941 48.1471C30.4544 47.9051 29.9184 47.7792 29.375 47.7792C28.8316 47.7792 28.2956 47.9051 27.809 48.1471L25.4375 49.3373C25.264 49.4244 25.0725 49.4698 24.8784 49.4698C24.6842 49.4698 24.4928 49.4244 24.3193 49.3373L21.9444 48.1504C21.4578 47.9085 20.9218 47.7825 20.3784 47.7825C19.835 47.7825 19.2989 47.9085 18.8124 48.1504L16.4375 49.3373C16.264 49.4244 16.0725 49.4698 15.8784 49.4698C15.6842 49.4698 15.4928 49.4244 15.3193 49.3373L12.9444 48.1504C12.4578 47.9085 11.9218 47.7825 11.3784 47.7825C10.835 47.7825 10.2989 47.9085 9.81238 48.1504L8.00338 49.0504C7.6538 49.2242 7.26874 49.3146 6.87838 49.3146C6.48801 49.3146 6.10295 49.2242 5.75338 49.0504L4.8905 48.6252C4.41014 48.3797 4.02246 47.9849 3.78575 47.5002H32.651C32.5548 47.7466 32.3816 47.9553 32.1571 48.0953V48.0964ZM36.0395 44.9701C35.8362 43.1956 35.2484 41.4868 34.3171 39.9627L32.8096 35.1376L33.4903 33.1542L35.2464 33.7583L38.3266 42.4568L38.7305 47.3011C37.6664 46.7405 36.7456 45.9425 36.0395 44.9689V44.9701ZM50.1999 46.7566L50.75 37.4416C50.7654 37.1797 50.6889 36.9207 50.5336 36.7093C50.3783 36.498 50.154 36.3475 49.8995 36.2839L49.7735 36.2502L50.561 29.9592L53.9709 31.3238L51.1933 45.9151C50.8856 46.2218 50.5534 46.5029 50.1999 46.7554V46.7566Z" fill="#069315"/>
<path d="M20.375 41.875C20.9963 41.875 21.5 41.3713 21.5 40.75C21.5 40.1287 20.9963 39.625 20.375 39.625C19.7537 39.625 19.25 40.1287 19.25 40.75C19.25 41.3713 19.7537 41.875 20.375 41.875Z" fill="#069315"/>
<path d="M15.875 40.75C16.4963 40.75 17 40.2463 17 39.625C17 39.0037 16.4963 38.5 15.875 38.5C15.2537 38.5 14.75 39.0037 14.75 39.625C14.75 40.2463 15.2537 40.75 15.875 40.75Z" fill="#069315"/>
<path d="M12.5 43C13.1213 43 13.625 42.4963 13.625 41.875C13.625 41.2537 13.1213 40.75 12.5 40.75C11.8787 40.75 11.375 41.2537 11.375 41.875C11.375 42.4963 11.8787 43 12.5 43Z" fill="#069315"/>
<path d="M29.375 43C29.9963 43 30.5 42.4963 30.5 41.875C30.5 41.2537 29.9963 40.75 29.375 40.75C28.7537 40.75 28.25 41.2537 28.25 41.875C28.25 42.4963 28.7537 43 29.375 43Z" fill="#069315"/>
<path d="M8 41.875C8.62132 41.875 9.125 41.3713 9.125 40.75C9.125 40.1287 8.62132 39.625 8 39.625C7.37868 39.625 6.875 40.1287 6.875 40.75C6.875 41.3713 7.37868 41.875 8 41.875Z" fill="#069315"/>
<path d="M24.875 40.75C25.4963 40.75 26 40.2463 26 39.625C26 39.0037 25.4963 38.5 24.875 38.5C24.2537 38.5 23.75 39.0037 23.75 39.625C23.75 40.2463 24.2537 40.75 24.875 40.75Z" fill="#069315"/>
</svg>
