<svg width="73" height="72" viewBox="0 0 73 72" fill="none" xmlns="http://www.w3.org/2000/svg">
<g clip-path="url(#clip0_111:370)">
<path d="M31.231 60.4619C30.8607 60.4619 30.4982 60.6124 30.2367 60.8739C29.9752 61.1354 29.8247 61.4985 29.8247 61.8682C29.8247 62.2379 29.9752 62.601 30.2367 62.8624C30.4982 63.1239 30.8607 63.2744 31.231 63.2744C31.6006 63.2744 31.9632 63.1239 32.2252 62.8624C32.4867 62.601 32.6372 62.2395 32.6372 61.8682C32.6372 61.4985 32.4867 61.1354 32.2252 60.8739C31.9632 60.6124 31.6006 60.4619 31.231 60.4619Z" fill="#069315"/>
<path d="M59.2401 36.8531L55.9628 22.0474C56.8472 21.9276 57.6273 21.4777 58.176 20.8262C58.8237 21.2311 59.5878 21.4662 60.4062 21.4662H63.2188C63.9955 21.4662 64.625 20.8367 64.625 20.0599V14.4349C64.625 13.6582 63.9955 13.0287 63.2188 13.0287H60.4062C59.5636 13.0287 58.7781 13.2781 58.1183 13.706C57.4745 12.9781 56.5347 12.5178 55.4888 12.5178H47.1875C45.6961 12.5178 44.4195 13.4533 43.9114 14.7678H40.5781C38.5621 14.7678 36.9219 16.4081 36.9219 18.4241C36.9219 20.4401 38.5621 22.0803 40.5781 22.0803H47.8165V24.9142C47.8165 25.691 48.446 26.3205 49.2227 26.3205C49.9995 26.3205 50.629 25.691 50.629 24.9142V22.0803H53.0899L56.6198 38.0297L49.939 49.929C49.209 51.2243 47.8324 52.0291 46.3454 52.0291H29.6676C28.9694 46.1739 23.9772 41.6184 17.9375 41.6184C15.2651 41.6184 12.7437 42.4891 10.6459 44.1359C10.6431 44.1381 10.6404 44.1403 10.6376 44.1425C8.13989 46.1069 6.56995 48.926 6.2041 52.0291H3.3158C3.49927 41.9194 11.7802 33.7522 21.9321 33.7522H31.9077C32.6949 33.7522 33.3359 34.3932 33.3359 35.181V47.8103C33.3359 48.587 33.9655 49.2166 34.7422 49.2166H42.225C45.2775 49.2166 48.0906 47.5565 49.566 44.8852C50.2488 43.6492 50.6108 42.2496 50.6119 40.8384L50.6191 36.1664C50.6202 35.3897 49.9912 34.7591 49.2145 34.758C49.2139 34.758 49.2134 34.758 49.2128 34.758C48.4372 34.758 47.8077 35.3864 47.8066 36.162L47.7994 40.8351C47.7989 41.7733 47.5583 42.7039 47.1046 43.5251C46.1235 45.3005 44.2536 46.4035 42.225 46.4035H36.1484V35.1804C36.1484 34.4603 35.9672 33.7813 35.6491 33.1864C36.9125 32.4564 37.7651 31.0919 37.7651 29.5312C37.7651 27.2049 35.8721 25.3125 33.5463 25.3125H28.4135C27.9202 25.3125 27.4473 25.3982 27.0073 25.5542V13.2188C27.0073 10.8924 25.1143 9 22.7885 9H13.7166C7.14014 9 1.67114 13.8285 0.665894 20.1259C0.623596 20.2599 0.600525 20.4022 0.600525 20.5499C0.600525 20.5587 0.601624 20.567 0.601624 20.5752C0.534607 21.1135 0.5 21.6612 0.5 22.2166V29.5318C0.5 31.6439 2.06061 33.3984 4.08923 33.7033L7.20331 36.8174C3.07739 40.7263 0.5 46.2535 0.5 52.3724V53.4353C0.5 54.212 1.12952 54.8416 1.90625 54.8416H9.80927C9.79114 54.9322 9.78125 55.0267 9.78125 55.1228C9.78125 57.1635 10.5366 59.0306 11.7802 60.4622H1.90625C1.12952 60.4622 0.5 61.0922 0.5 61.8684C0.5 62.6451 1.12952 63.2747 1.90625 63.2747H17.7749C17.8293 63.2763 17.8831 63.2791 17.9375 63.2791C22.4348 63.2791 26.0938 59.6201 26.0938 55.1228C26.0938 55.0267 26.0839 54.9322 26.0657 54.8416H46.3454C48.5597 54.8416 50.629 53.7803 51.9259 52.0247H53.7068C53.3063 52.9991 53.0938 54.0494 53.0938 55.1228C53.0938 57.1635 53.8491 59.0306 55.0927 60.4622H36.856C36.0792 60.4622 35.4497 61.0922 35.4497 61.8684C35.4497 62.6451 36.0792 63.2747 36.856 63.2747H61.0874C61.1418 63.2763 61.1956 63.2791 61.25 63.2791C65.7473 63.2791 69.4062 59.6201 69.4062 55.1228C69.4062 54.0494 69.1937 52.9991 68.7932 52.0247H71.0938C71.8705 52.0247 72.5 51.3951 72.5 50.6184C72.5 43.1955 66.5976 37.125 59.2401 36.8531ZM28.4135 28.1255H33.5463C34.3214 28.1255 34.9526 28.7562 34.9526 29.5318C34.9526 30.3069 34.3214 30.938 33.5463 30.938H28.4135C27.6379 30.938 27.0073 30.3069 27.0073 29.5318C27.0073 28.7562 27.6379 28.1255 28.4135 28.1255ZM3.3125 22.2166C3.3125 22.1298 3.31689 22.0435 3.31909 21.9567H18.7071C19.4838 21.9567 20.1133 21.3272 20.1133 20.5505C20.1133 19.7737 19.4838 19.1442 18.7071 19.1442H3.77612C5.09009 14.9024 9.04901 11.813 13.7166 11.813H22.788C23.5636 11.813 24.1942 12.4437 24.1942 13.2193V29.5318C24.1942 30.3069 23.5636 30.938 22.788 30.938H4.7193C4.7193 30.938 4.71875 30.938 4.7182 30.938C3.94312 30.938 3.3125 30.3069 3.3125 29.5318V22.2166ZM8.11407 33.7505H11.332C10.6563 34.1362 10.0043 34.5586 9.37695 35.0134L8.11407 33.7505ZM23.2812 55.1228C23.2812 58.0512 20.9131 60.4358 17.9919 60.4649C17.9738 60.4644 17.9556 60.4622 17.9375 60.4622H17.7755C14.9036 60.3759 12.5938 58.015 12.5938 55.1228C12.5938 55.0267 12.5839 54.9322 12.5657 54.8416H23.3093C23.2911 54.9322 23.2812 55.0267 23.2812 55.1228ZM9.04187 52.0291C9.39014 49.795 10.5635 47.7768 12.3757 46.3535C12.3801 46.3508 12.3839 46.3469 12.3883 46.3442C13.9846 45.0928 15.9034 44.4309 17.9375 44.4309C22.4243 44.4309 26.1547 47.7296 26.832 52.0291H9.04187ZM60.4062 15.8412H61.8125V18.6537H60.4062C59.6306 18.6537 59 18.0231 59 17.2474C59 16.4724 59.6306 15.8412 60.4062 15.8412ZM39.7344 18.4241C39.7344 17.9588 40.1129 17.5803 40.5781 17.5803H43.6763V18.5691C43.6763 18.8086 43.7004 19.0421 43.746 19.2678H40.5781C40.1129 19.2678 39.7344 18.8893 39.7344 18.4241ZM49.2227 19.2678H47.1875C46.8024 19.2678 46.4888 18.9547 46.4888 18.5691V16.0291C46.4888 15.644 46.8024 15.3303 47.1875 15.3303H55.4888C55.8738 15.3303 56.1875 15.644 56.1875 16.0291V18.5691C56.1875 18.9547 55.8738 19.2678 55.4888 19.2678H49.2227ZM66.5938 55.1228C66.5938 58.0512 64.2256 60.4358 61.3044 60.4649C61.2863 60.4644 61.2681 60.4622 61.25 60.4622H61.088C58.2161 60.3759 55.9062 58.015 55.9062 55.1228C55.9062 54.0055 56.2545 52.9255 56.8961 52.0247H65.6039C66.2455 52.9255 66.5938 54.0055 66.5938 55.1228ZM53.5667 49.2122L58.9291 39.6612C64.4053 39.7617 68.9141 43.8953 69.5974 49.2122H53.5667Z" fill="#069315"/>
<path d="M49.2227 31.9453C49.9995 31.9453 50.629 31.3158 50.629 30.5391C50.629 29.7623 49.9995 29.1328 49.2227 29.1328H49.2178C48.441 29.1328 47.8137 29.7623 47.8137 30.5391C47.8137 31.3158 48.446 31.9453 49.2227 31.9453Z" fill="#069315"/>
</g>
<defs>
<clipPath id="clip0_111:370">
<rect width="72" height="72" fill="white" transform="translate(0.5)"/>
</clipPath>
</defs>
</svg>
