<svg width="132" height="20" viewBox="0 0 132 20" fill="none" xmlns="http://www.w3.org/2000/svg">
<g clip-path="url(#clip0_111:173)">
<path d="M9.31208 0.961799C9.57319 0.359639 10.4271 0.359639 10.6883 0.961799L12.7029 5.60766C12.9202 6.10889 13.3929 6.45231 13.9368 6.50414L18.9778 6.98449C19.6312 7.04675 19.895 7.85891 19.403 8.29332L15.6071 11.645C15.1976 12.0066 15.017 12.5622 15.1358 13.0955L16.2367 18.0382C16.3794 18.6789 15.6886 19.1808 15.1234 18.8471L10.7628 16.2727C10.2923 15.995 9.70804 15.995 9.23758 16.2727L4.87696 18.8471C4.31177 19.1808 3.62091 18.6789 3.7636 18.0382L4.86452 13.0955C4.9833 12.5622 4.80275 12.0066 4.39322 11.645L0.597284 8.29332C0.105286 7.85891 0.369171 7.04675 1.02255 6.98449L6.06358 6.50414C6.60744 6.45231 7.08012 6.10889 7.29747 5.60766L9.31208 0.961799Z" fill="#FEC400"/>
</g>
<g clip-path="url(#clip1_111:173)">
<path d="M37.3121 0.961799C37.5732 0.359639 38.4271 0.359639 38.6883 0.961799L40.7029 5.60766C40.9202 6.10889 41.3929 6.45231 41.9368 6.50414L46.9778 6.98449C47.6312 7.04675 47.895 7.85891 47.403 8.29332L43.6071 11.645C43.1976 12.0066 43.017 12.5622 43.1358 13.0955L44.2367 18.0382C44.3794 18.6789 43.6886 19.1808 43.1234 18.8471L38.7628 16.2727C38.2923 15.995 37.708 15.995 37.2376 16.2727L32.877 18.8471C32.3118 19.1808 31.6209 18.6789 31.7636 18.0382L32.8645 13.0955C32.9833 12.5622 32.8027 12.0066 32.3932 11.645L28.5973 8.29332C28.1053 7.85891 28.3692 7.04675 29.0225 6.98449L34.0636 6.50414C34.6074 6.45231 35.0801 6.10889 35.2975 5.60766L37.3121 0.961799Z" fill="#FEC400"/>
</g>
<g clip-path="url(#clip2_111:173)">
<path d="M65.3121 0.961799C65.5732 0.359639 66.4271 0.359639 66.6883 0.961799L68.7029 5.60766C68.9202 6.10889 69.3929 6.45231 69.9368 6.50414L74.9778 6.98449C75.6312 7.04675 75.895 7.85891 75.403 8.29332L71.6071 11.645C71.1976 12.0066 71.017 12.5622 71.1358 13.0955L72.2367 18.0382C72.3794 18.6789 71.6886 19.1808 71.1234 18.8471L66.7628 16.2727C66.2923 15.995 65.708 15.995 65.2376 16.2727L60.877 18.8471C60.3118 19.1808 59.6209 18.6789 59.7636 18.0382L60.8645 13.0955C60.9833 12.5622 60.8027 12.0066 60.3932 11.645L56.5973 8.29332C56.1053 7.85891 56.3692 7.04675 57.0225 6.98449L62.0636 6.50414C62.6074 6.45231 63.0801 6.10889 63.2975 5.60766L65.3121 0.961799Z" fill="#FEC400"/>
</g>
<g clip-path="url(#clip3_111:173)">
<path d="M93.3121 0.961799C93.5732 0.359639 94.4271 0.359639 94.6883 0.961799L96.7029 5.60766C96.9202 6.10889 97.3929 6.45231 97.9368 6.50414L102.978 6.98449C103.631 7.04675 103.895 7.85891 103.403 8.29332L99.6071 11.645C99.1976 12.0066 99.017 12.5622 99.1358 13.0955L100.237 18.0382C100.379 18.6789 99.6886 19.1808 99.1234 18.8471L94.7628 16.2727C94.2923 15.995 93.708 15.995 93.2376 16.2727L88.877 18.8471C88.3118 19.1808 87.6209 18.6789 87.7636 18.0382L88.8645 13.0955C88.9833 12.5622 88.8027 12.0066 88.3932 11.645L84.5973 8.29332C84.1053 7.85891 84.3692 7.04675 85.0225 6.98449L90.0636 6.50414C90.6074 6.45231 91.0801 6.10889 91.2975 5.60766L93.3121 0.961799Z" fill="#FEC400"/>
</g>
<g clip-path="url(#clip4_111:173)">
<path d="M121.312 0.961799C121.573 0.359639 122.427 0.359639 122.688 0.961799L124.703 5.60766C124.92 6.10889 125.393 6.45231 125.937 6.50414L130.978 6.98449C131.631 7.04675 131.895 7.85891 131.403 8.29332L127.607 11.645C127.198 12.0066 127.017 12.5622 127.136 13.0955L128.237 18.0382C128.379 18.6789 127.689 19.1808 127.123 18.8471L122.763 16.2727C122.292 15.995 121.708 15.995 121.238 16.2727L116.877 18.8471C116.312 19.1808 115.621 18.6789 115.764 18.0382L116.865 13.0955C116.983 12.5622 116.803 12.0066 116.393 11.645L112.597 8.29332C112.105 7.85891 112.369 7.04675 113.023 6.98449L118.064 6.50414C118.607 6.45231 119.08 6.10889 119.297 5.60766L121.312 0.961799Z" fill="#FEC400"/>
</g>
<defs>
<clipPath id="clip0_111:173">
<rect width="20" height="20" fill="white"/>
</clipPath>
<clipPath id="clip1_111:173">
<rect width="20" height="20" fill="white" transform="translate(28)"/>
</clipPath>
<clipPath id="clip2_111:173">
<rect width="20" height="20" fill="white" transform="translate(56)"/>
</clipPath>
<clipPath id="clip3_111:173">
<rect width="20" height="20" fill="white" transform="translate(84)"/>
</clipPath>
<clipPath id="clip4_111:173">
<rect width="20" height="20" fill="white" transform="translate(112)"/>
</clipPath>
</defs>
</svg>
